General
Complete name                    : Kiss Kiss Bang Bang [2005] 720p BRRip H264 AAC - CODY.mp4
Format                           : MPEG-4
Format profile                   : Base Media
Codec ID                         : isom
File size                        : 2.00 GiB
Duration                         : 1h 42mn
Overall bit rate                 : 2 785 Kbps
Encoded date                     : UTC 2011-10-19 01:20:49
Tagged date                      : UTC 2011-10-19 01:20:49

Video
ID                               : 1
Format                           : AVC
Format/Info                      : Advanced Video Codec
Format profile                   : High@L4.1
Format settings, CABAC           : Yes
Format settings, ReFrames        : 5 frames
Codec ID                         : avc1
Codec ID/Info                    : Advanced Video Coding
Duration                         : 1h 42mn
Bit rate mode                    : Variable
Bit rate                         : 2 412 Kbps
Maximum bit rate                 : 12.3 Mbps
Width                            : 1 280 pixels
Height                           : 528 pixels
Display aspect ratio             : 2.40:1
Frame rate mode                  : Constant
Frame rate                       : 23.976 fps
Color space                      : YUV
Chroma subsampling               : 4:2:0
Bit depth                        : 8 bits
Scan type                        : Progressive
Bits/(Pixel*Frame)               : 0.149
Stream size                      : 1.73 GiB (87%)
Writing library                  : x264 core 118 r2085 8a62835
Encoding settings                : cabac=1 / ref=5 / deblock=1:0:0 / analyse=0x3:0x113 / me=umh / 
                                   subme=8 / psy=1 / psy_rd=1.00:0.00 / mixed_ref=1 / me_range=16 /
                                   chroma_me=1 / trellis=1 / 8x8dct=1 / cqm=0 / deadzone=21,11 / 
                                   fast_pskip=1 / chroma_qp_offset=-4 / threads=12 / 
                                   sliced_threads=0 / nr=0 / decimate=1 / interlaced=0 /
                                   bluray_compat=0 / constrained_intra=0 / bframes=3 / b_pyramid=2 /
                                   b_adapt=2 / b_bias=0 / direct=3 / weightb=1 / open_gop=0 /
                                   weightp=2 / keyint=250 / keyint_min=23 / scenecut=40 / 
                                   intra_refresh=0 / rc_lookahead=50 / rc=crf / mbtree=1 / 
                                   crf=19.0 / qcomp=0.60 / qpmin=10 / qpmax=51 / qpstep=4 /
                                   vbv_maxrate=25000 / vbv_bufsize=25000 / crf_max=0.0 /
                                   nal_hrd=none / ip_ratio=1.40 / aq=1:1.00
Encoded date                     : UTC 2011-10-19 01:20:49
Tagged date                      : UTC 2011-10-19 01:21:35

Audio
ID                               : 2
Format                           : AAC
Format/Info                      : Advanced Audio Codec
Format profile                   : LC
Codec ID                         : 40
Duration                         : 1h 42mn
Bit rate mode                    : Variable
Bit rate                         : 369 Kbps
Maximum bit rate                 : 493 Kbps
Channel(s)                       : 6 channels
Channel positions                : Front: L C R, Side: L R, LFE
Sampling rate                    : 48.0 KHz
Compression mode                 : Lossy
Stream size                      : 271 MiB (13%)
Encoded date                     : UTC 2011-10-19 01:21:29
Tagged date                      : UTC 2011-10-19 01:21:35





IMDB link:                         http://www.imdb.com/title/tt0373469/




Subtitles included               : Romanian




Please seed at least 1,5:1. This way this torrent has a chance to survive!




Thanks. ENJOY !!!
